<svg width="192" height="192" viewBox="0 0 192 192" fill="none" xmlns="http://www.w3.org/2000/svg">
<rect width="192" height="192" fill="url(#paint0_radial_221854_5400)"/>
<path d="M130.93 98.5093C120.539 98.5093 109.778 102.743 101.434 111.087C100.618 111.903 99.8486 112.749 99.1097 113.611C97.9089 111.81 96.5234 110.086 94.9378 108.5C88.2566 101.819 79.3585 98.5093 70.1834 98.5093C59.7922 98.5093 49.0314 102.743 40.6876 111.087C25.0006 126.774 23.8306 151.066 38.1013 165.337C44.7979 172.033 53.6805 175.328 62.8557 175.328C73.2469 175.328 84.0077 171.094 92.3515 162.75C93.1674 161.935 93.9371 161.088 94.6761 160.226C95.8768 162.027 97.2623 163.751 98.848 165.337C105.545 172.033 114.427 175.328 123.602 175.328C133.994 175.328 144.754 171.094 153.098 162.75C168.785 147.064 169.955 122.771 155.684 108.5C149.003 101.819 140.105 98.5093 130.93 98.5093ZM88.8262 134.317C88.5337 140.567 85.7473 146.632 80.9904 151.389C75.9872 156.393 69.3829 159.256 62.8557 159.256C59.1456 159.256 53.8191 158.332 49.4471 153.976C46.5529 151.081 44.8749 147.371 44.3361 143.384C51.7408 148.495 62.4708 147.294 69.6754 140.09C76.88 132.885 78.0654 122.155 72.9698 114.75C76.295 115.182 80.2052 116.49 83.5612 119.846C87.2251 123.51 89.0879 128.652 88.8262 134.317ZM149.573 134.317C149.28 140.567 146.494 146.632 141.737 151.389C136.734 156.393 130.13 159.256 123.602 159.256C119.892 159.256 114.566 158.332 110.194 153.976C107.3 151.081 105.622 147.371 105.083 143.384C112.487 148.495 123.217 147.294 130.422 140.09C137.627 132.885 138.812 122.155 133.716 114.75C137.042 115.182 140.952 116.49 144.308 119.846C147.972 123.51 149.834 128.652 149.573 134.317Z" fill="#1C1917"/>
<path d="M149.573 134.317C149.28 140.567 146.494 146.632 141.737 151.389C136.734 156.393 130.13 159.256 123.602 159.256C119.892 159.256 114.566 158.332 110.194 153.976C107.3 151.081 105.622 147.371 105.083 143.384C112.487 148.495 123.217 147.294 130.422 140.09C137.627 132.885 138.812 122.155 133.716 114.75C137.042 115.182 140.952 116.49 144.308 119.846C147.972 123.51 149.834 128.652 149.573 134.317Z" fill="white"/>
<path d="M88.8262 134.317C88.5337 140.567 85.7473 146.632 80.9904 151.389C75.9872 156.393 69.3829 159.256 62.8557 159.256C59.1456 159.256 53.8191 158.332 49.4471 153.976C46.5529 151.081 44.8749 147.371 44.3361 143.384C51.7408 148.495 62.4708 147.294 69.6754 140.09C76.88 132.885 78.0654 122.155 72.9698 114.75C76.295 115.182 80.2052 116.49 83.5612 119.846C87.2251 123.51 89.0879 128.652 88.8262 134.317Z" fill="white"/>
<path d="M142.06 18.1963C107.407 3.20207 66.5504 18.8737 45.7678 53.3573C31.0199 53.9269 16.6876 63.61 9.94485 79.2046C7.82041 84.1155 6.65043 89.1649 6.32715 94.1373H185.457C187.566 61.5933 171.248 30.8352 142.045 18.1963H142.06Z" fill="#1C1917"/>
<defs>
<radialGradient id="paint0_radial_221854_5400" cx="0" cy="0" r="1" gradientUnits="userSpaceOnUse" gradientTransform="translate(96 137.455) rotate(-90) scale(120 96)">
<stop offset="0.25" stop-color="#F3A0B6"/>
<stop offset="1" stop-color="#D3FFE2"/>
</radialGradient>
</defs>
</svg>
