<svg xmlns="http://www.w3.org/2000/svg" xmlns:xlink="http://www.w3.org/1999/xlink" width="18" height="192" fill="none" viewBox="0 0 18 192"><g clip-path="url(#a)"><path fill="url(#b)" d="M0 0h402v192H0z" transform="matrix(1 0 0 -1 0 192)"/></g><defs><clipPath id="a"><path fill="#fff" d="M0 0h18v192H0z"/></clipPath><pattern id="b" width="1" height="1" patternTransform="scale(219.333 207.387)" patternUnits="userSpaceOnUse" preserveAspectRatio="none" viewBox="0 0 219.333 207.387"><use xlink:href="#c" transform="translate(-219.333)"/><g id="c" fill="#78716c"><path d="M204.447 1.33a1.33 1.33 0 1 0 2.66 0 1.33 1.33 0 0 0-2.66 0M186.113 1.33a1.33 1.33 0 1 0 2.66 0 1.33 1.33 0 0 0-2.66 0M167.78 1.33a1.33 1.33 0 1 0 2.66 0 1.33 1.33 0 0 0-2.66 0M149.447 1.33a1.33 1.33 0 1 0 2.66 0 1.33 1.33 0 0 0-2.66 0M131.113 1.33a1.33 1.33 0 1 0 2.66 0 1.33 1.33 0 0 0-2.66 0M112.78 1.33a1.33 1.33 0 1 0 2.66 0 1.33 1.33 0 0 0-2.66 0M94.447 1.33a1.33 1.33 0 1 0 2.66 0 1.33 1.33 0 0 0-2.66 0M76.113 1.33a1.33 1.33 0 1 0 2.66 0 1.33 1.33 0 0 0-2.66 0M57.78 1.33a1.33 1.33 0 1 0 2.66 0 1.33 1.33 0 0 0-2.66 0M39.447 1.33a1.33 1.33 0 1 0 2.66 0 1.33 1.33 0 0 0-2.66 0M21.113 1.33a1.33 1.33 0 1 0 2.66 0 1.33 1.33 0 0 0-2.66 0M2.78 1.33a1.33 1.33 0 1 0 2.66 0 1.33 1.33 0 0 0-2.66 0M213.333 19.663a1.61 1.61 0 1 0 3.22 0 1.61 1.61 0 0 0-3.22 0M195 19.663a1.61 1.61 0 1 0 3.22 0 1.61 1.61 0 0 0-3.22 0M176.667 19.663a1.61 1.61 0 1 0 3.219.001 1.61 1.61 0 0 0-3.219 0M158.333 19.663a1.61 1.61 0 1 0 3.22 0 1.61 1.61 0 0 0-3.22 0M140 19.663a1.61 1.61 0 1 0 3.22 0 1.61 1.61 0 0 0-3.22 0M121.667 19.663a1.61 1.61 0 1 0 3.22 0 1.61 1.61 0 0 0-3.22 0M103.333 19.663a1.61 1.61 0 1 0 3.22 0 1.61 1.61 0 0 0-3.22 0M85 19.663a1.61 1.61 0 1 0 3.22 0 1.61 1.61 0 0 0-3.22 0M66.667 19.663a1.61 1.61 0 1 0 3.22 0 1.61 1.61 0 0 0-3.22 0M48.333 19.663a1.61 1.61 0 1 0 3.22 0 1.61 1.61 0 0 0-3.22 0M30 19.663a1.61 1.61 0 1 0 3.22 0 1.61 1.61 0 0 0-3.22 0M11.667 19.663a1.61 1.61 0 1 0 3.22 0 1.61 1.61 0 0 0-3.22 0M203.887 37.997a1.89 1.89 0 1 0 3.78 0 1.89 1.89 0 0 0-3.78 0M185.553 37.997a1.89 1.89 0 1 0 3.781-.001 1.89 1.89 0 0 0-3.781 0M167.22 37.997a1.89 1.89 0 1 0 3.78 0 1.89 1.89 0 0 0-3.78 0M148.887 37.997a1.89 1.89 0 1 0 3.78 0 1.89 1.89 0 0 0-3.78 0M130.553 37.997a1.89 1.89 0 1 0 3.781-.001 1.89 1.89 0 0 0-3.781 0M112.22 37.997a1.89 1.89 0 1 0 3.78 0 1.89 1.89 0 0 0-3.78 0M93.887 37.997a1.89 1.89 0 1 0 3.78 0 1.89 1.89 0 0 0-3.78 0M75.553 37.997a1.89 1.89 0 1 0 3.78 0 1.89 1.89 0 0 0-3.78 0M57.22 37.997a1.89 1.89 0 1 0 3.78 0 1.89 1.89 0 0 0-3.78 0M38.887 37.997a1.89 1.89 0 1 0 3.78 0 1.89 1.89 0 0 0-3.78 0M20.553 37.997a1.89 1.89 0 1 0 3.78 0 1.89 1.89 0 0 0-3.78 0M2.22 37.997a1.89 1.89 0 1 0 3.78 0 1.89 1.89 0 0 0-3.78 0M212.773 56.33a2.17 2.17 0 1 0 4.34 0 2.17 2.17 0 0 0-4.34 0M194.44 56.33a2.17 2.17 0 1 0 4.34 0 2.17 2.17 0 0 0-4.34 0M176.107 56.33a2.17 2.17 0 1 0 4.34 0 2.17 2.17 0 0 0-4.34 0M157.773 56.33a2.17 2.17 0 1 0 4.34 0 2.17 2.17 0 0 0-4.34 0M139.44 56.33a2.17 2.17 0 1 0 4.34 0 2.17 2.17 0 0 0-4.34 0M121.107 56.33a2.17 2.17 0 1 0 4.34 0 2.17 2.17 0 0 0-4.34 0M102.773 56.33a2.17 2.17 0 1 0 4.34 0 2.17 2.17 0 0 0-4.34 0M84.44 56.33a2.17 2.17 0 1 0 4.34 0 2.17 2.17 0 0 0-4.34 0M66.107 56.33a2.17 2.17 0 1 0 4.34 0 2.17 2.17 0 0 0-4.34 0M47.773 56.33a2.17 2.17 0 1 0 4.34 0 2.17 2.17 0 0 0-4.34 0M29.44 56.33a2.17 2.17 0 1 0 4.34 0 2.17 2.17 0 0 0-4.34 0M11.107 56.33a2.17 2.17 0 1 0 4.34 0 2.17 2.17 0 0 0-4.34 0M203.337 74.663a2.44 2.44 0 1 0 4.88 0 2.44 2.44 0 0 0-4.88 0M185.003 74.663a2.44 2.44 0 1 0 4.88 0 2.44 2.44 0 0 0-4.88 0M166.67 74.663a2.44 2.44 0 1 0 4.88 0 2.44 2.44 0 0 0-4.88 0M148.337 74.663a2.44 2.44 0 1 0 4.88 0 2.44 2.44 0 0 0-4.88 0M130.003 74.663a2.44 2.44 0 1 0 4.88 0 2.44 2.44 0 0 0-4.88 0M111.67 74.663a2.44 2.44 0 1 0 4.88 0 2.44 2.44 0 0 0-4.88 0M93.337 74.663a2.44 2.44 0 1 0 4.88 0 2.44 2.44 0 0 0-4.88 0M75.003 74.663a2.44 2.44 0 1 0 4.88 0 2.44 2.44 0 0 0-4.88 0M56.67 74.663a2.44 2.44 0 1 0 4.88 0 2.44 2.44 0 0 0-4.88 0M38.337 74.663a2.44 2.44 0 1 0 4.88 0 2.44 2.44 0 0 0-4.88 0M20.003 74.663a2.44 2.44 0 1 0 4.88 0 2.44 2.44 0 0 0-4.88 0M1.67 74.663a2.44 2.44 0 1 0 4.88 0 2.44 2.44 0 0 0-4.88 0M212.223 92.997a2.72 2.72 0 1 0 5.44 0 2.72 2.72 0 0 0-5.44 0M193.89 92.997a2.72 2.72 0 1 0 5.44 0 2.72 2.72 0 0 0-5.44 0M175.557 92.997a2.72 2.72 0 1 0 5.439 0 2.72 2.72 0 0 0-5.439 0M157.223 92.997a2.72 2.72 0 1 0 5.44 0 2.72 2.72 0 0 0-5.44 0M138.89 92.997a2.72 2.72 0 1 0 5.44 0 2.72 2.72 0 0 0-5.44 0M120.557 92.997a2.72 2.72 0 1 0 5.439 0 2.72 2.72 0 0 0-5.439 0M102.223 92.997a2.72 2.72 0 1 0 5.44 0 2.72 2.72 0 0 0-5.44 0M83.89 92.997a2.72 2.72 0 1 0 5.44 0 2.72 2.72 0 0 0-5.44 0M65.557 92.997a2.72 2.72 0 1 0 5.44 0 2.72 2.72 0 0 0-5.44 0M47.223 92.997a2.72 2.72 0 1 0 5.44 0 2.72 2.72 0 0 0-5.44 0M28.89 92.997a2.72 2.72 0 1 0 5.44 0 2.72 2.72 0 0 0-5.44 0M10.557 92.997a2.72 2.72 0 1 0 5.44 0 2.72 2.72 0 0 0-5.44 0M202.777 111.33a3 3 0 1 0 6 0 3 3 0 0 0-6 0M184.443 111.33a3 3 0 1 0 6 0 3 3 0 0 0-6 0M166.11 111.33a3 3 0 1 0 6 0 3 3 0 0 0-6 0M147.777 111.33a3 3 0 1 0 6 0 3 3 0 0 0-6 0M129.443 111.33a3 3 0 1 0 6 0 3 3 0 0 0-6 0M111.11 111.33a3 3 0 1 0 6 0 3 3 0 0 0-6 0M92.777 111.33a3 3 0 1 0 6 0 3 3 0 0 0-6 0M74.443 111.33a3 3 0 1 0 6 0 3 3 0 0 0-6 0M56.11 111.33a3 3 0 1 0 6 0 3 3 0 0 0-6 0M37.777 111.33a3 3 0 1 0 6 0 3 3 0 0 0-6 0M19.443 111.33a3 3 0 1 0 6 0 3 3 0 0 0-6 0M1.11 111.33a3 3 0 1 0 6 0 3 3 0 0 0-6 0M211.663 129.663a3.28 3.28 0 1 0 6.56 0 3.28 3.28 0 0 0-6.56 0M193.33 129.663a3.28 3.28 0 1 0 6.56 0 3.28 3.28 0 0 0-6.56 0M174.997 129.663a3.28 3.28 0 1 0 6.559.001 3.28 3.28 0 0 0-6.559-.001M156.663 129.663a3.28 3.28 0 1 0 6.56 0 3.28 3.28 0 0 0-6.56 0M138.33 129.663a3.28 3.28 0 1 0 6.56 0 3.28 3.28 0 0 0-6.56 0M119.997 129.663a3.28 3.28 0 1 0 6.559.001 3.28 3.28 0 0 0-6.559-.001M101.663 129.663a3.28 3.28 0 1 0 6.56 0 3.28 3.28 0 0 0-6.56 0M83.33 129.663a3.28 3.28 0 1 0 6.56 0 3.28 3.28 0 0 0-6.56 0M64.997 129.663a3.28 3.28 0 1 0 6.559 0 3.28 3.28 0 0 0-6.56 0M46.663 129.663a3.28 3.28 0 1 0 6.56 0 3.28 3.28 0 0 0-6.56 0M28.33 129.663a3.28 3.28 0 1 0 6.56 0 3.28 3.28 0 0 0-6.56 0M9.997 129.663a3.28 3.28 0 1 0 6.56 0 3.28 3.28 0 0 0-6.56 0M202.217 147.997a3.56 3.56 0 1 0 7.12 0 3.56 3.56 0 0 0-7.12 0M183.883 147.997a3.56 3.56 0 1 0 7.12 0 3.56 3.56 0 0 0-7.12 0M165.55 147.997a3.56 3.56 0 1 0 7.12 0 3.56 3.56 0 0 0-7.12 0M147.217 147.997a3.56 3.56 0 1 0 7.12 0 3.56 3.56 0 0 0-7.12 0M128.883 147.997a3.56 3.56 0 1 0 7.12 0 3.56 3.56 0 0 0-7.12 0M110.55 147.997a3.56 3.56 0 1 0 7.12 0 3.56 3.56 0 0 0-7.12 0M92.217 147.997a3.56 3.56 0 1 0 7.12 0 3.56 3.56 0 0 0-7.12 0M73.883 147.997a3.56 3.56 0 1 0 7.12 0 3.56 3.56 0 0 0-7.12 0M55.55 147.997a3.56 3.56 0 1 0 7.12 0 3.56 3.56 0 0 0-7.12 0M37.217 147.997a3.56 3.56 0 1 0 7.12 0 3.56 3.56 0 0 0-7.12 0M18.883 147.997a3.56 3.56 0 1 0 7.12 0 3.56 3.56 0 0 0-7.12 0M.55 147.997a3.56 3.56 0 1 0 7.12 0 3.56 3.56 0 0 0-7.12 0M211.113 166.33a3.83 3.83 0 1 0 7.66 0 3.83 3.83 0 0 0-7.66 0M192.78 166.33a3.83 3.83 0 1 0 7.66 0 3.83 3.83 0 0 0-7.66 0M174.447 166.33a3.83 3.83 0 1 0 7.66 0 3.83 3.83 0 0 0-7.66 0M156.113 166.33a3.83 3.83 0 1 0 7.66 0 3.83 3.83 0 0 0-7.66 0M137.78 166.33a3.83 3.83 0 1 0 7.66 0 3.83 3.83 0 0 0-7.66 0M119.447 166.33a3.83 3.83 0 1 0 7.66 0 3.83 3.83 0 0 0-7.66 0M101.113 166.33a3.83 3.83 0 1 0 7.66 0 3.83 3.83 0 0 0-7.66 0M82.78 166.33a3.83 3.83 0 1 0 7.66 0 3.83 3.83 0 0 0-7.66 0M64.447 166.33a3.83 3.83 0 1 0 7.66 0 3.83 3.83 0 0 0-7.66 0M46.113 166.33a3.83 3.83 0 1 0 7.66 0 3.83 3.83 0 0 0-7.66 0M27.78 166.33a3.83 3.83 0 1 0 7.66 0 3.83 3.83 0 0 0-7.66 0M9.447 166.33a3.83 3.83 0 1 0 7.66 0 3.83 3.83 0 0 0-7.66 0M201.667 184.663a4.11 4.11 0 1 0 8.22 0 4.11 4.11 0 0 0-8.22 0M183.333 184.663a4.11 4.11 0 1 0 8.22 0 4.11 4.11 0 0 0-8.22 0M165 184.663a4.11 4.11 0 1 0 8.22 0 4.11 4.11 0 0 0-8.22 0M146.667 184.663a4.11 4.11 0 1 0 8.22 0 4.11 4.11 0 0 0-8.22 0M128.333 184.663a4.11 4.11 0 1 0 8.22 0 4.11 4.11 0 0 0-8.22 0M110 184.663a4.11 4.11 0 1 0 8.22 0 4.11 4.11 0 0 0-8.22 0M91.667 184.663a4.11 4.11 0 1 0 8.22 0 4.11 4.11 0 0 0-8.22 0M73.333 184.663a4.11 4.11 0 1 0 8.22 0 4.11 4.11 0 0 0-8.22 0M55 184.663a4.11 4.11 0 1 0 8.22 0 4.11 4.11 0 0 0-8.22 0M36.667 184.663a4.11 4.11 0 1 0 8.22 0 4.11 4.11 0 0 0-8.22 0M18.333 184.663a4.11 4.11 0 1 0 8.22 0 4.11 4.11 0 0 0-8.22 0M0 184.663a4.11 4.11 0 1 0 8.22 0 4.11 4.11 0 0 0-8.22 0M210.553 202.997a4.39 4.39 0 1 0 8.781-.001 4.39 4.39 0 0 0-8.781.001M192.22 202.997a4.39 4.39 0 1 0 8.78 0 4.39 4.39 0 0 0-8.78 0M173.887 202.997a4.39 4.39 0 1 0 8.78 0 4.39 4.39 0 0 0-8.78 0M155.553 202.997a4.39 4.39 0 1 0 8.781-.001 4.39 4.39 0 0 0-8.781.001M137.22 202.997a4.39 4.39 0 1 0 8.78 0 4.39 4.39 0 0 0-8.78 0M118.887 202.997a4.39 4.39 0 1 0 8.78 0 4.39 4.39 0 0 0-8.78 0M100.553 202.997a4.39 4.39 0 1 0 8.781-.001 4.39 4.39 0 0 0-8.781.001M82.22 202.997a4.39 4.39 0 1 0 8.78 0 4.39 4.39 0 0 0-8.78 0M63.887 202.997a4.39 4.39 0 1 0 8.78 0 4.39 4.39 0 0 0-8.78 0M45.553 202.997a4.39 4.39 0 1 0 8.781 0 4.39 4.39 0 0 0-8.78 0M27.22 202.997a4.39 4.39 0 1 0 8.78 0 4.39 4.39 0 0 0-8.78 0M8.887 202.997a4.39 4.39 0 1 0 8.78 0 4.39 4.39 0 0 0-8.78 0"/></g></pattern></defs></svg>